<?xml version="1.0" standalone="no"?>
<!DOCTYPE svg PUBLIC "-//W3C//DTD SVG 20010904//EN"
 "http://www.w3.org/TR/2001/REC-SVG-20010904/DTD/svg10.dtd">
<svg version="1.0" xmlns="http://www.w3.org/2000/svg"
 width="351.000000pt" height="185.000000pt" viewBox="0 0 351.000000 185.000000"
 preserveAspectRatio="xMidYMid meet">
<g transform="translate(0.000000,185.000000) scale(0.100000,-0.100000)"
fill="#000000" stroke="none">
<path d="M1127 1663 c-7 -15 5 -113 14 -113 5 0 9 5 9 10 0 7 6 7 19 1 26 -14
34 -1 14 21 -15 17 -15 20 -3 28 13 8 12 10 -2 10 -9 0 -19 -6 -21 -12 -3 -7
-6 1 -6 19 -1 30 -15 52 -24 36z"/>
<path d="M2712 1658 c-5 -7 -12 -31 -14 -53 -2 -30 1 -40 12 -40 11 0 15 10
13 38 -1 27 3 37 14 37 8 0 13 5 11 12 -6 17 -24 20 -36 6z"/>
<path d="M840 1611 c0 -44 2 -49 24 -53 14 -3 30 0 35 5 18 18 12 48 -9 54
-11 3 -20 14 -20 24 0 11 -7 19 -15 19 -11 0 -15 -12 -15 -49z"/>
<path d="M1376 1649 c-76 -13 -115 -96 -79 -166 11 -21 30 -43 42 -49 28 -14
37 -24 23 -24 -18 0 -82 60 -82 77 0 13 -11 15 -62 11 -52 -4 -64 -8 -84 -33
-28 -35 -54 -126 -54 -189 0 -46 1 -48 23 -40 12 4 126 9 254 11 l232 4 24 29
c13 15 30 55 37 89 7 33 16 58 21 55 11 -6 0 -89 -17 -133 -8 -18 -12 -36 -9
-41 2 -4 28 -3 57 2 86 14 285 11 372 -6 44 -9 82 -12 85 -8 7 8 476 0 485 -9
5 -5 -209 -22 -254 -20 -8 0 -78 2 -155 5 -77 2 -160 9 -185 14 -85 19 -222
24 -310 11 -47 -6 -125 -14 -175 -15 -49 -2 -101 -4 -115 -5 -14 -1 -68 4
-120 11 -123 16 -198 3 -222 -38 -61 -103 -62 -436 -2 -554 21 -41 76 -52 204
-43 136 10 316 7 408 -7 80 -12 288 -5 359 12 69 16 338 20 443 5 111 -15 106
-16 -150 -24 l-195 -6 3 -95 c1 -52 5 -112 8 -134 l6 -38 72 6 c140 14 145 15
166 55 10 20 29 46 43 59 27 25 95 40 120 26 10 -6 -3 -9 -38 -9 -51 0 -75 -8
-63 -21 4 -3 21 -1 40 4 67 18 124 -28 119 -97 -3 -48 -15 -66 -57 -86 -34
-16 -38 -16 -74 0 -21 9 -43 28 -51 41 -17 33 -16 80 4 102 19 21 22 32 7 32
-15 0 -40 -56 -40 -90 0 -45 24 -85 64 -104 45 -21 74 -20 113 4 56 34 73 90
48 155 -7 16 -6 18 6 8 28 -27 56 -15 79 35 24 50 49 141 50 181 0 19 -4 22
-22 17 -72 -20 -81 -16 -28 11 36 19 61 26 72 21 9 -4 53 -8 97 -8 67 0 84 3
101 20 70 70 74 392 6 486 -11 15 -30 19 -94 22 -49 3 -88 -1 -101 -8 -16 -8
-26 -8 -36 0 -7 6 -37 19 -66 30 -58 21 -41 27 22 8 22 -6 42 -8 45 -5 11 10
-15 122 -41 180 -26 59 -45 73 -77 56 -19 -10 -20 -9 -13 7 16 38 15 70 -2
104 -22 42 -54 60 -110 60 -33 0 -50 -7 -79 -32 -35 -31 -36 -34 -32 -87 4
-46 10 -59 37 -83 34 -30 30 -38 -8 -12 -12 9 -31 35 -41 59 -17 39 -21 42
-65 49 -67 9 -173 8 -179 -2 -3 -5 -6 -56 -7 -114 -1 -58 -6 -112 -11 -119 -6
-9 -7 36 -3 122 l7 136 -24 6 c-39 11 -476 8 -483 -3 -3 -5 -18 -9 -33 -8 -64
4 -91 -2 -97 -22 -10 -31 -55 -80 -73 -80 -13 0 -11 4 6 16 55 38 68 123 27
172 -31 37 -68 50 -119 41z m89 -42 c18 -15 28 -36 32 -64 5 -39 2 -46 -30
-78 -43 -43 -82 -46 -125 -10 -36 31 -47 66 -32 111 21 62 105 84 155 41z
m1154 -44 c41 -39 48 -80 19 -123 -45 -67 -142 -60 -172 12 -41 97 77 182 153
111z m-729 -98 l0 -55 -99 0 c-110 0 -111 1 -111 71 l0 39 105 0 105 0 0 -55z
m256 43 c6 -10 8 -47 5 -88 -1 -6 -48 -10 -121 -10 l-120 0 0 55 0 55 114 0
c77 0 117 -4 122 -12z m-505 -20 c4 -76 -20 -175 -48 -200 -15 -14 -56 -17
-256 -20 l-239 -3 7 50 c3 28 17 73 29 101 20 42 29 52 56 58 59 11 74 7 92
-24 25 -44 77 -63 150 -55 51 6 62 11 88 43 17 20 30 42 30 49 0 11 23 19 68
22 16 1 22 -5 23 -21z m720 -8 c34 0 40 -4 53 -32 19 -43 61 -86 91 -94 50
-12 114 6 156 43 38 35 40 35 54 17 8 -10 24 -50 36 -89 35 -117 34 -109 8
-101 -78 23 -223 38 -388 39 l-183 2 6 44 c3 24 6 75 6 114 l0 70 61 -7 c34
-3 79 -6 100 -6z m-479 -145 c-2 -22 -7 -43 -10 -46 -4 -4 -51 -9 -105 -12
-89 -5 -98 -4 -92 11 4 9 9 34 12 55 l6 38 96 -3 96 -3 -3 -40z m179 35 l89 0
0 -61 0 -61 -27 7 c-63 17 -111 24 -165 25 l-58 0 0 43 c0 53 6 60 44 53 16
-3 68 -6 117 -6z m-96 -150 c153 -14 166 -19 197 -87 66 -146 64 -309 -5 -453
-20 -40 -28 -47 -72 -59 -32 -9 -112 -14 -225 -15 -224 -1 -224 -1 -280 124
-67 151 -66 259 3 396 38 74 55 85 144 94 110 10 126 10 238 0z m-586 -12 c28
-6 51 -14 51 -18 0 -3 -9 -25 -20 -48 -24 -50 -50 -167 -50 -227 0 -54 34
-205 56 -247 8 -16 13 -32 10 -36 -21 -20 -215 -28 -265 -11 -38 13 -50 33
-66 113 -22 107 -27 191 -15 277 17 134 37 180 85 200 30 12 157 11 214 -3z
m221 -2 c0 -2 -15 -31 -33 -63 -41 -72 -57 -133 -57 -215 1 -85 14 -136 59
-229 l39 -79 -51 0 c-84 0 -97 7 -122 64 -34 78 -58 200 -52 265 3 31 18 96
34 146 33 103 46 115 131 115 28 0 52 -2 52 -4z m1104 -19 c84 -27 101 -47
122 -147 20 -96 14 -222 -16 -319 -13 -39 -20 -46 -69 -68 -30 -13 -75 -27
-100 -30 -47 -5 -217 10 -228 21 -3 3 2 17 11 30 59 91 59 410 0 477 -26 29
-15 37 64 46 116 15 141 14 216 -10z m-329 -3 c16 -6 49 -80 65 -146 18 -72 8
-240 -18 -309 -37 -94 -36 -93 -156 -97 -58 -3 -106 -2 -106 1 0 3 11 27 25
54 14 26 32 86 41 132 20 106 7 219 -37 311 -16 34 -29 64 -29 67 0 7 194 -5
215 -13z m540 -34 c-3 -5 -19 -10 -36 -10 -33 0 -35 -5 -13 -48 12 -25 22 -32
44 -32 28 0 29 2 25 33 l-5 32 10 -30 c15 -41 24 -210 16 -276 l-7 -55 -34 4
c-29 4 -35 0 -50 -28 -22 -42 -13 -60 27 -60 20 0 28 -4 23 -9 -15 -14 -80 2
-78 20 1 8 11 47 22 88 12 41 21 104 21 140 0 69 -31 200 -51 212 -17 10 20
28 59 29 20 0 31 -4 27 -10z m97 -20 c26 -31 41 -145 36 -261 -7 -132 -25
-182 -73 -197 -19 -5 -35 -7 -35 -4 0 4 10 34 21 67 32 97 24 349 -12 390 -5
5 -9 15 -9 23 0 20 50 7 72 -18z m-97 -21 c10 -30 -8 -44 -29 -24 -9 9 -16 23
-16 31 0 22 38 17 45 -7z m5 -373 c0 -20 -31 -49 -41 -39 -14 14 2 53 22 53
11 0 19 -6 19 -14z m-153 -183 c-10 -52 -52 -153 -62 -153 -3 0 -23 14 -44 30
-50 40 -100 54 -149 41 -42 -12 -85 -51 -101 -93 -9 -24 -16 -27 -78 -32 -37
-4 -80 -9 -95 -11 -15 -2 -29 -1 -32 3 -2 4 -5 55 -7 114 l-4 107 205 5 c118
3 232 11 270 20 110 23 109 24 97 -31z"/>
<path d="M1362 1578 c-7 -7 -12 -26 -12 -43 0 -17 5 -36 12 -43 18 -18 63 -14
81 6 21 23 21 41 1 70 -17 24 -62 30 -82 10z m62 -24 c20 -19 20 -28 1 -44
-21 -18 -55 -3 -55 25 0 21 10 32 32 34 4 1 14 -6 22 -15z"/>
<path d="M2517 1532 c-35 -38 -13 -92 36 -92 40 0 57 15 57 50 0 52 -60 78
-93 42z m66 -23 c23 -37 -25 -68 -52 -35 -9 11 -10 20 -1 36 13 24 38 23 53
-1z"/>
<path d="M3065 1638 c-11 -28 -1 -73 17 -76 14 -3 16 3 11 35 -7 45 -20 63
-28 41z"/>
<path d="M960 1620 c-7 -5 -15 -20 -17 -34 -3 -23 0 -26 27 -26 25 0 30 4 30
24 0 29 -21 48 -40 36z"/>
<path d="M1052 1612 c-15 -11 -21 -24 -17 -34 7 -19 32 -31 46 -22 14 8 11 24
-6 24 -8 0 -15 7 -15 15 0 9 6 15 13 13 6 -2 13 1 15 7 6 17 -12 15 -36 -3z"/>
<path d="M2777 1623 c-14 -13 -7 -63 8 -63 9 0 15 9 15 25 0 16 6 25 16 25 8
0 12 5 9 10 -7 11 -38 13 -48 3z"/>
<path d="M2873 1620 c-26 -11 -31 -45 -7 -54 17 -7 54 9 54 24 0 15 -12 40
-19 39 -3 0 -16 -4 -28 -9z"/>
<path d="M2959 1624 c-6 -24 -1 -58 9 -62 7 -2 12 7 12 22 0 14 5 26 11 26 5
0 9 -10 7 -22 -2 -11 3 -23 10 -26 10 -3 13 5 10 29 -3 29 -7 34 -30 36 -16 1
-28 0 -29 -3z"/>
<path d="M901 1201 c-25 -25 -37 -69 -52 -189 -14 -108 -1 -257 29 -344 18
-51 20 -53 63 -59 63 -9 116 -3 133 14 13 12 12 22 -6 78 -15 46 -22 99 -25
189 -4 123 2 163 42 286 5 18 1 23 -26 33 -53 18 -136 14 -158 -8z m54 -18
c-24 -58 -36 -133 -41 -243 -4 -103 -2 -138 14 -200 11 -41 23 -83 27 -93 13
-32 -37 -17 -53 15 -23 49 -41 238 -31 330 18 167 33 207 78 208 9 0 11 -6 6
-17z m108 -17 c-1 -16 -7 -34 -14 -40 -8 -8 -9 -3 -4 22 6 31 5 32 -24 32 -25
0 -33 -6 -41 -27 -6 -16 -15 -37 -20 -48 -9 -17 -10 -15 -6 10 3 17 9 43 15
58 10 26 15 28 53 25 41 -3 43 -5 41 -32z m-38 -33 c-9 -48 -12 -53 -35 -53
-17 0 -18 4 -9 33 6 17 12 38 15 45 2 6 11 12 20 12 13 0 15 -7 9 -37z m5 -88
c-22 -92 -7 -266 29 -358 6 -16 11 -34 11 -42 0 -17 -67 -30 -85 -15 -14 12
-39 99 -31 108 3 2 11 -17 18 -43 7 -26 19 -50 26 -52 21 -9 27 6 9 20 -23 16
-36 92 -16 85 19 -6 39 -47 39 -80 0 -16 5 -28 10 -28 13 0 4 62 -14 100 -10
20 -19 25 -48 24 l-36 -1 -8 85 c-3 47 -3 115 2 151 l9 66 38 -3 c27 -3 39 1
43 13 11 28 13 11 4 -30z"/>
<path d="M1084 585 c-13 -32 6 -138 34 -194 27 -54 29 -56 77 -63 61 -9 77 -5
90 24 12 26 70 68 94 68 9 -1 3 -7 -14 -14 -68 -30 -97 -97 -71 -160 16 -38
67 -76 104 -76 128 0 168 169 54 229 -20 11 -30 20 -22 20 26 1 74 -37 96 -76
l21 -38 139 -13 c144 -13 461 -9 477 7 4 4 5 72 1 150 l-7 143 -36 -6 c-150
-24 -259 -29 -364 -18 -61 6 -112 10 -114 8 -2 -1 4 -19 12 -39 8 -20 15 -62
14 -94 l0 -58 -18 68 c-10 37 -27 80 -38 95 l-20 27 -239 5 c-131 3 -245 9
-252 13 -7 5 -14 2 -18 -8z m497 -36 c26 -13 59 -112 59 -174 l0 -55 -40 0
c-35 0 -41 4 -56 35 -24 51 -84 82 -153 80 -50 -2 -57 -5 -93 -43 -31 -34 -45
-42 -74 -42 -19 0 -43 4 -53 10 -24 12 -57 92 -66 155 l-6 50 232 -3 c128 -2
241 -8 250 -13z m567 -39 l2 -60 -125 0 -125 0 0 44 0 45 58 6 c31 3 77 10
102 14 88 17 85 18 88 -49z m-336 35 l66 -6 4 -45 3 -44 -82 -1 c-46 -1 -89
-2 -95 -3 -7 -1 -16 15 -19 34 -4 19 -10 45 -14 58 -7 21 -5 22 31 18 22 -3
69 -8 106 -11z m78 -180 l0 -56 -107 3 -108 3 3 40 c2 22 8 45 12 50 5 6 52
11 104 13 l96 3 0 -56z m260 0 l0 -55 -120 0 -120 0 0 55 0 55 120 0 120 0 0
-55z m-679 -4 c39 -40 40 -89 0 -133 -51 -58 -139 -36 -162 40 -9 32 -8 44 5
71 31 58 109 69 157 22z"/>
<path d="M1372 343 c-7 -3 -18 -16 -23 -30 -21 -55 53 -99 95 -57 44 44 -12
111 -72 87z m58 -34 c14 -24 -2 -49 -31 -49 -24 0 -32 16 -25 46 8 30 41 32
56 3z"/>
<path d="M2516 368 c-21 -29 -20 -51 2 -71 45 -41 111 -2 91 52 -18 46 -67 57
-93 19z m62 -7 c21 -13 11 -55 -14 -59 -30 -4 -48 21 -34 47 11 22 27 26 48
12z"/>
</g>
</svg>
